<?xml version="1.0" encoding="utf-8"?>
<!-- Generator: Adobe Illustrator 16.0.0, SVG Export Plug-In . SVG Version: 6.00 Build 0)  -->
<!DOCTYPE svg PUBLIC "-//W3C//DTD SVG 1.1//EN" "http://www.w3.org/Graphics/SVG/1.1/DTD/svg11.dtd">
<svg version="1.1" id="Layer_1" xmlns="http://www.w3.org/2000/svg" xmlns:xlink="http://www.w3.org/1999/xlink" x="0px" y="0px"
	 width="200px" height="200px" viewBox="0 0 200 200" enable-background="new 0 0 200 200" xml:space="preserve">
<g>
	<path fill="#68819F" d="M31.5,61.247v0.062h137v-0.062c6.233,0,11.286-5.053,11.286-11.287s-5.053-11.287-11.286-11.287v-0.062
		h-137v0.062c-6.233,0-11.287,5.053-11.287,11.287S25.267,61.247,31.5,61.247z"/>
	<path fill="#68819F" d="M168.5,88.712v-0.061h-137v0.061c-6.233,0-11.287,5.053-11.287,11.287s5.053,11.287,11.287,11.287v0.062
		h137v-0.062c6.233,0,11.286-5.054,11.286-11.287S174.733,88.712,168.5,88.712z"/>
	<path fill="#68819F" d="M168.5,138.692h-137c-6.233,0-11.287,5.053-11.287,11.287c0,6.232,5.053,11.287,11.287,11.287v0.121h137
		v-0.121c6.233,0,11.286-5.055,11.286-11.287C179.786,143.745,174.733,138.692,168.5,138.692z"/>
</g>
</svg>
